<svg width="22" height="17" viewBox="0 0 22 17" fill="none" xmlns="http://www.w3.org/2000/svg">
<g clip-path="url(#clip0_340_27)">
<path fill-rule="evenodd" clip-rule="evenodd" d="M11.3148 9.43452C11.1316 9.25106 11.0287 9.00239 11.0287 8.74311C11.0287 8.48383 11.1316 8.23515 11.3148 8.0517L15.0041 4.36114C15.1876 4.17768 15.4365 4.07465 15.6961 4.07471C15.9556 4.07477 16.2044 4.17792 16.3879 4.36146C16.5713 4.54501 16.6744 4.79392 16.6743 5.05343C16.6743 5.31294 16.5711 5.5618 16.3876 5.74526L13.3897 8.74311L16.3876 11.741C16.5659 11.9254 16.6646 12.1725 16.6625 12.429C16.6604 12.6856 16.5576 12.931 16.3763 13.1125C16.195 13.294 15.9496 13.397 15.6931 13.3994C15.4366 13.4017 15.1894 13.3032 15.0047 13.1251L11.3142 9.43517L11.3148 9.43452Z" fill="white" fill-opacity="0.19"/>
</g>
<g clip-path="url(#clip1_340_27)">
<path fill-rule="evenodd" clip-rule="evenodd" d="M6.09462 9.43452C5.9114 9.25106 5.80848 9.00239 5.80848 8.74311C5.80848 8.48383 5.9114 8.23515 6.09462 8.0517L9.78387 4.36114C9.96742 4.17768 10.2163 4.07465 10.4758 4.07471C10.7354 4.07477 10.9842 4.17792 11.1677 4.36146C11.3511 4.54501 11.4542 4.79392 11.4541 5.05343C11.454 5.31294 11.3509 5.5618 11.1673 5.74526L8.1695 8.74311L11.1673 11.741C11.3457 11.9254 11.4444 12.1725 11.4423 12.429C11.4402 12.6856 11.3374 12.931 11.1561 13.1125C10.9748 13.294 10.7294 13.397 10.4729 13.3994C10.2163 13.4017 9.96914 13.3032 9.78453 13.1251L6.09397 9.43517L6.09462 9.43452Z" fill="white" fill-opacity="0.19"/>
</g>
<defs>
<clipPath id="clip0_340_27">
<rect width="15.6545" height="15.6545" fill="white" transform="matrix(0 1 -1 0 21.7896 0.915771)"/>
</clipPath>
<clipPath id="clip1_340_27">
<rect width="15.6545" height="15.6545" fill="white" transform="matrix(0 1 -1 0 16.5713 0.915771)"/>
</clipPath>
</defs>
</svg>
