<svg width="25" height="25" viewBox="0 0 25 25" fill="none" xmlns="http://www.w3.org/2000/svg">
<path fill-rule="evenodd" clip-rule="evenodd" d="M3.94043 5.58875C3.94043 4.84192 4.23711 4.12568 4.76519 3.59759C5.29328 3.0695 6.00952 2.77283 6.75635 2.77283H19.8973C20.6442 2.77283 21.3604 3.0695 21.8885 3.59759C22.4166 4.12568 22.7133 4.84192 22.7133 5.58875V11.6899C22.7132 11.7691 22.7031 11.8479 22.6832 11.9246C22.7031 12.0012 22.7132 12.0801 22.7133 12.1592V18.7297C22.7133 19.4766 22.4166 20.1928 21.8885 20.7209C21.3604 21.249 20.6442 21.5457 19.8973 21.5457H6.75635C6.00952 21.5457 5.29328 21.249 4.76519 20.7209C4.23711 20.1928 3.94043 19.4766 3.94043 18.7297V15.9138C3.94051 15.8346 3.9506 15.7558 3.97047 15.6791C3.9506 15.6025 3.94051 15.5237 3.94043 15.4445V5.58875ZM6.75072 14.8156C6.42407 14.8219 6.11307 14.8362 5.81771 14.8588V5.58875C5.81771 5.33981 5.9166 5.10106 6.09263 4.92503C6.26866 4.749 6.50741 4.65011 6.75635 4.65011H19.8973C20.1463 4.65011 20.385 4.749 20.5611 4.92503C20.7371 5.10106 20.836 5.33981 20.836 5.58875V11.2356C16.8026 11.3661 13.89 12.3376 11.8438 13.6977C12.6191 13.9727 13.4864 14.3641 14.3368 14.8766C15.65 15.6651 16.9847 16.7727 17.883 18.2398C17.9474 18.3449 17.9904 18.4617 18.0096 18.5835C18.0288 18.7052 18.0238 18.8296 17.995 18.9494C17.9661 19.0693 17.9139 19.1823 17.8414 19.2819C17.7689 19.3816 17.6775 19.466 17.5723 19.5304C17.4672 19.5947 17.3504 19.6377 17.2286 19.6569C17.1069 19.6762 16.9825 19.6712 16.8627 19.6423C16.7428 19.6135 16.6298 19.5613 16.5301 19.4888C16.4305 19.4163 16.346 19.3248 16.2817 19.2197C15.5908 18.0905 14.5189 17.1753 13.37 16.4854C12.223 15.7965 11.0563 15.3666 10.2472 15.1789C9.10733 14.9189 7.94032 14.7972 6.77137 14.8165H6.75072V14.8156ZM8.63364 8.40468C9.0519 8.10969 9.55044 7.94984 10.0622 7.94662C10.4471 7.94662 11.0037 8.05456 11.4909 8.40468C12.0259 8.78952 12.4089 9.42404 12.4089 10.2932C12.4089 11.1624 12.0259 11.796 11.4909 12.1808C11.0727 12.4761 10.5742 12.6363 10.0622 12.6398C9.67741 12.6398 9.12079 12.5319 8.63364 12.1808C8.09861 11.796 7.71565 11.1633 7.71565 10.2932C7.71565 9.42404 8.09861 8.79046 8.63364 8.40468Z" fill="white"/>
</svg>
