<svg width="31" height="36" viewBox="0 0 31 36" fill="none" xmlns="http://www.w3.org/2000/svg">
<path d="M13.577 22.9188C13.577 23.3196 13.2521 23.6445 12.8513 23.6445H9.09908C7.67182 23.6445 6.45544 23.0678 5.44994 21.9144C4.44444 20.7611 3.94127 19.3653 3.94043 17.7272C3.93959 16.0891 4.44276 14.6933 5.44994 13.54C6.45712 12.3866 7.6735 11.8094 9.09908 11.8085H12.8513C13.2521 11.8085 13.577 12.1334 13.577 12.5342C13.577 12.9349 13.2521 13.2599 12.8513 13.2599H9.09908C8.02779 13.2599 7.11128 13.6972 6.34957 14.5719C5.58701 15.4476 5.20574 16.4993 5.20574 17.7272C5.20574 18.9551 5.58701 20.0063 6.34957 20.881C7.11213 21.7557 8.02863 22.1931 9.09908 22.1931H12.8513C13.2521 22.1931 13.577 22.518 13.577 22.9188ZM11.6253 18.4529C11.2245 18.4529 10.8996 18.128 10.8996 17.7272C10.8996 17.3264 11.2245 17.0015 11.6253 17.0015H19.0311C19.4318 17.0015 19.7567 17.3264 19.7567 17.7272C19.7567 18.128 19.4318 18.4529 19.0311 18.4529H11.6253ZM17.8062 23.6447C17.4054 23.6446 17.0806 23.3197 17.0806 22.9189C17.0806 22.518 17.4056 22.1931 17.8064 22.1931H21.5573C22.6286 22.1931 23.5451 21.7557 24.3068 20.881C25.0693 20.0063 25.4506 18.9551 25.4506 17.7272C25.4506 16.4993 25.0693 15.448 24.3068 14.5733C23.5442 13.6987 22.6277 13.2613 21.5573 13.2613H17.8063C17.4055 13.2613 17.0806 12.9364 17.0806 12.5356C17.0806 12.1348 17.4055 11.8099 17.8063 11.8099H21.5573C22.9845 11.8099 24.2013 12.3866 25.2077 13.54C26.214 14.6933 26.7168 16.0891 26.7159 17.7272C26.7151 19.3653 26.2119 20.7611 25.2064 21.9144C24.2009 23.0678 22.9845 23.645 21.5573 23.6459L17.8062 23.6447Z" fill="white"/>
</svg>
