<svg width="13" height="12" viewBox="0 0 13 12" fill="none" xmlns="http://www.w3.org/2000/svg">
<g clip-path="url(#clip0_35_240)">
<path fill-rule="evenodd" clip-rule="evenodd" d="M6.82087 8.0301C6.68408 8.16673 6.49865 8.24347 6.30531 8.24347C6.11197 8.24347 5.92654 8.16673 5.78974 8.0301L3.0378 5.27913C2.901 5.14227 2.82417 4.95666 2.82422 4.76315C2.82426 4.56964 2.90118 4.38408 3.03804 4.24727C3.17491 4.11047 3.36051 4.03365 3.55402 4.03369C3.74753 4.03374 3.9331 4.11065 4.0699 4.24752L6.30531 6.48292L8.54072 4.24752C8.67825 4.11455 8.86251 4.04093 9.0538 4.0425C9.24509 4.04407 9.42812 4.12071 9.56345 4.25592C9.69878 4.39112 9.7756 4.57407 9.77735 4.76537C9.7791 4.95666 9.70565 5.14098 9.57282 5.27865L6.82136 8.03059L6.82087 8.0301Z" fill="white"/>
</g>
<defs>
<clipPath id="clip0_35_240">
<rect width="11.6731" height="11.6731" fill="white" transform="translate(0.46875 0.218872)"/>
</clipPath>
</defs>
</svg>
