<svg width="27" height="27" viewBox="0 0 27 27" fill="none" xmlns="http://www.w3.org/2000/svg">
<path fill-rule="evenodd" clip-rule="evenodd" d="M15.1937 5.81278C15.1937 3.80725 16.8287 2.17994 18.8429 2.17994C19.3212 2.17866 19.795 2.27161 20.2373 2.45351C20.6796 2.63541 21.0818 2.90267 21.4207 3.24004C21.7597 3.57741 22.0289 3.97827 22.2129 4.41971C22.3969 4.86115 22.4922 5.33452 22.4932 5.81278C22.4932 7.81939 20.8582 9.4467 18.8429 9.4467C18.3596 9.44705 17.8811 9.35147 17.4351 9.16549C16.989 8.97952 16.5843 8.70684 16.2444 8.36328L11.1925 11.8032C11.3329 12.504 11.2639 13.2307 10.9941 13.8926L16.5333 17.5331C17.1859 17.0013 18.0022 16.7114 18.844 16.7124C19.3222 16.7112 19.796 16.8043 20.2383 16.9864C20.6806 17.1684 21.0826 17.4358 21.4215 17.7732C21.7604 18.1107 22.0295 18.5116 22.2134 18.9531C22.3972 19.3946 22.4923 19.868 22.4932 20.3463C22.4932 22.3518 20.8582 23.9791 18.8429 23.9791C18.3647 23.9803 17.891 23.8872 17.4488 23.7052C17.0066 23.5233 16.6046 23.256 16.2658 22.9186C15.9269 22.5813 15.6578 22.1805 15.4739 21.7391C15.2899 21.2977 15.1947 20.8245 15.1937 20.3463C15.1929 19.8369 15.3002 19.3331 15.5087 18.8683L10.0131 15.2595C9.34742 15.8378 8.49489 16.1556 7.61305 16.1543C7.13479 16.1555 6.661 16.0624 6.21874 15.8803C5.77648 15.6983 5.37441 15.4309 5.03553 15.0934C4.69664 14.756 4.42757 14.355 4.24369 13.9135C4.05981 13.472 3.96472 12.9986 3.96387 12.5204C3.96487 12.0422 4.06006 11.5689 4.244 11.1276C4.42795 10.6862 4.69704 10.2854 5.03591 9.94804C5.37478 9.61068 5.7768 9.34339 6.21899 9.16143C6.66118 8.97947 7.13489 8.88641 7.61305 8.88755C8.77277 8.88755 9.80387 9.4249 10.472 10.262L15.3692 6.92781C15.2524 6.56768 15.1932 6.19137 15.1937 5.81278Z" fill="white"/>
</svg>
