<svg width="26" height="26" viewBox="0 0 26 26" fill="none" xmlns="http://www.w3.org/2000/svg">
<path fill-rule="evenodd" clip-rule="evenodd" d="M22.7805 11.8591V17.1946C22.7805 20.5029 22.7805 22.1581 21.9961 22.8805C21.6221 23.2257 21.1498 23.4426 20.6465 23.5003C19.5918 23.621 18.3597 22.5311 15.8966 20.3522C14.8067 19.3894 14.2628 18.9075 13.6334 18.7814C13.3231 18.7181 13.0033 18.7181 12.693 18.7814C12.0625 18.9075 11.5186 19.3894 10.4297 20.3522C7.96664 22.5311 6.73456 23.621 5.67987 23.4992C5.17579 23.4412 4.70317 23.2246 4.33024 22.8805C3.5459 22.1581 3.5459 20.504 3.5459 17.1946V11.858C3.5459 7.27699 3.5459 4.98594 4.9543 3.56151C6.36269 2.13708 8.63024 2.13708 13.1632 2.13708C17.6961 2.13708 19.9637 2.13708 21.3721 3.56044C22.7805 4.9838 22.7805 7.27699 22.7805 11.8591ZM9.15598 6.41144C9.15598 6.19888 9.24042 5.99503 9.39072 5.84473C9.54102 5.69443 9.74487 5.60999 9.95742 5.60999H16.3689C16.5815 5.60999 16.7854 5.69443 16.9357 5.84473C17.086 5.99503 17.1704 6.19888 17.1704 6.41144C17.1704 6.62399 17.086 6.82784 16.9357 6.97814C16.7854 7.12844 16.5815 7.21288 16.3689 7.21288H9.95742C9.74487 7.21288 9.54102 7.12844 9.39072 6.97814C9.24042 6.82784 9.15598 6.62399 9.15598 6.41144Z" fill="white"/>
</svg>
