<svg width="11" height="12" viewBox="0 0 11 12" fill="none" xmlns="http://www.w3.org/2000/svg">
<path d="M6.6793 3.27608H4.08916M1.49902 5.47683V7.63226C1.49902 8.96878 1.49902 9.63746 1.81588 9.92929C1.96698 10.0687 2.15778 10.1564 2.36111 10.1797C2.78719 10.2284 3.28493 9.78812 4.27997 8.90791C4.7203 8.51895 4.94003 8.32426 5.19429 8.27332C5.31948 8.24742 5.44899 8.24742 5.57418 8.27332C5.82887 8.32426 6.04861 8.51895 6.4885 8.90791C7.48354 9.78812 7.98128 10.2284 8.40736 10.1792C8.61025 10.1564 8.80149 10.0687 8.95258 9.92929C9.26945 9.63746 9.26945 8.96921 9.26945 7.63226V5.4764C9.26945 3.62531 9.26944 2.69977 8.70048 2.12433C8.13151 1.54888 7.21546 1.54932 5.38423 1.54932C3.553 1.54932 2.63696 1.54932 2.06799 2.12433C1.71962 2.47659 1.5845 2.96094 1.53226 3.70777L1.49902 5.47683Z" stroke="white" stroke-width="0.690704" stroke-linecap="round"/>
</svg>
