<svg width="426" height="278" viewBox="0 0 426 278" fill="none" xmlns="http://www.w3.org/2000/svg">
<g filter="url(#filter0_d_8_108)">
<path d="M11.8133 61.1746C14.0257 61.1746 16.1474 62.0838 17.7118 63.7022C19.2762 65.3206 20.155 67.5157 20.155 69.8045C20.155 72.7521 18.6016 75.1646 16.9648 76.8954C16.147 77.7508 15.2547 78.5263 14.2992 79.2121L13.9043 79.4902L13.7189 79.6177L13.3695 79.8478L13.0581 80.0444L12.6725 80.2764C12.4108 80.431 12.1147 80.5123 11.8133 80.5123C11.512 80.5123 11.2159 80.431 10.9542 80.2764L10.5686 80.0444L10.0866 79.7376L9.90866 79.6177L9.52865 79.3559C8.49784 78.6344 7.53769 77.8103 6.6619 76.8954C5.02508 75.1637 3.47168 72.7521 3.47168 69.8045C3.47168 67.5157 4.35053 65.3206 5.9149 63.7022C7.47926 62.0838 9.601 61.1746 11.8133 61.1746ZM11.8133 66.9279C11.4482 66.9279 11.0866 67.0023 10.7493 67.1468C10.4119 67.2914 10.1054 67.5033 9.84719 67.7704C9.58899 68.0375 9.38418 68.3546 9.24444 68.7037C9.10471 69.0527 9.03279 69.4267 9.03279 69.8045C9.03279 70.1823 9.10471 70.5563 9.24444 70.9053C9.38418 71.2544 9.58899 71.5715 9.84719 71.8386C10.1054 72.1057 10.4119 72.3176 10.7493 72.4622C11.0866 72.6067 11.4482 72.6811 11.8133 72.6811C12.5508 72.6811 13.258 72.3781 13.7795 71.8386C14.3009 71.2991 14.5939 70.5674 14.5939 69.8045C14.5939 69.0416 14.3009 68.3099 13.7795 67.7704C13.258 67.2309 12.5508 66.9279 11.8133 66.9279Z" fill="white"/>
</g>
<g filter="url(#filter1_d_8_108)">
<path d="M105.426 39.1207C107.638 39.1207 109.76 40.03 111.324 41.6484C112.888 43.2668 113.767 45.4619 113.767 47.7507C113.767 50.6983 112.214 53.1108 110.577 54.8416C109.759 55.697 108.867 56.4725 107.911 57.1583L107.517 57.4363L107.331 57.5639L106.982 57.794L106.67 57.9906L106.285 58.2226C106.023 58.3772 105.727 58.4584 105.426 58.4584C105.124 58.4584 104.828 58.3772 104.566 58.2226L104.181 57.9906L103.699 57.6837L103.521 57.5639L103.141 57.3021C102.11 56.5805 101.15 55.7565 100.274 54.8416C98.6374 53.1099 97.084 50.6983 97.084 47.7507C97.084 45.4619 97.9628 43.2668 99.5272 41.6484C101.092 40.03 103.213 39.1207 105.426 39.1207ZM105.426 44.874C105.06 44.874 104.699 44.9484 104.362 45.093C104.024 45.2376 103.718 45.4494 103.459 45.7166C103.201 45.9837 102.996 46.3008 102.857 46.6498C102.717 46.9988 102.645 47.3729 102.645 47.7507C102.645 48.1284 102.717 48.5025 102.857 48.8515C102.996 49.2005 103.201 49.5176 103.459 49.7848C103.718 50.0519 104.024 50.2638 104.362 50.4083C104.699 50.5529 105.06 50.6273 105.426 50.6273C106.163 50.6273 106.87 50.3242 107.392 49.7848C107.913 49.2453 108.206 48.5136 108.206 47.7507C108.206 46.9877 107.913 46.256 107.392 45.7166C106.87 45.1771 106.163 44.874 105.426 44.874Z" fill="white"/>
</g>
<g filter="url(#filter2_d_8_108)">
<path d="M97.0834 0.764893C99.2957 0.764893 101.417 1.67412 102.982 3.29254C104.546 4.91097 105.425 7.10603 105.425 9.39483C105.425 12.3424 103.872 14.755 102.235 16.4858C101.417 17.3411 100.525 18.1166 99.5692 18.8024L99.1743 19.0805L98.989 19.208L98.6395 19.4382L98.3281 19.6347L97.9426 19.8668C97.6808 20.0213 97.3847 20.1026 97.0834 20.1026C96.782 20.1026 96.4859 20.0213 96.2242 19.8668L95.8386 19.6347L95.3566 19.3279L95.1787 19.208L94.7987 18.9462C93.7679 18.2247 92.8077 17.4006 91.9319 16.4858C90.2951 14.754 88.7417 12.3424 88.7417 9.39483C88.7417 7.10603 89.6206 4.91097 91.1849 3.29254C92.7493 1.67412 94.871 0.764893 97.0834 0.764893ZM97.0834 6.51818C96.7182 6.51818 96.3566 6.59259 96.0193 6.73715C95.6819 6.88172 95.3754 7.09361 95.1172 7.36073C94.859 7.62785 94.6542 7.94497 94.5145 8.29398C94.3747 8.64299 94.3028 9.01706 94.3028 9.39483C94.3028 9.77259 94.3747 10.1467 94.5145 10.4957C94.6542 10.8447 94.859 11.1618 95.1172 11.4289C95.3754 11.696 95.6819 11.9079 96.0193 12.0525C96.3566 12.1971 96.7182 12.2715 97.0834 12.2715C97.8208 12.2715 98.5281 11.9684 99.0495 11.4289C99.571 10.8894 99.8639 10.1578 99.8639 9.39483C99.8639 8.63189 99.571 7.90021 99.0495 7.36073C98.5281 6.82126 97.8208 6.51818 97.0834 6.51818Z" fill="white"/>
</g>
<g filter="url(#filter3_d_8_108)">
<path d="M282.454 154.186C284.666 154.186 286.788 155.096 288.352 156.714C289.917 158.332 290.796 160.527 290.796 162.816C290.796 165.764 289.242 168.176 287.605 169.907C286.788 170.763 285.895 171.538 284.94 172.224L284.545 172.502L284.36 172.629L284.01 172.86L283.699 173.056L283.313 173.288C283.051 173.443 282.755 173.524 282.454 173.524C282.153 173.524 281.856 173.443 281.595 173.288L281.209 173.056L280.727 172.749L280.549 172.629L280.169 172.368C279.138 171.646 278.178 170.822 277.303 169.907C275.666 168.175 274.112 165.764 274.112 162.816C274.112 160.527 274.991 158.332 276.556 156.714C278.12 155.096 280.242 154.186 282.454 154.186ZM282.454 159.94C282.089 159.94 281.727 160.014 281.39 160.159C281.053 160.303 280.746 160.515 280.488 160.782C280.23 161.049 280.025 161.366 279.885 161.715C279.745 162.064 279.673 162.438 279.673 162.816C279.673 163.194 279.745 163.568 279.885 163.917C280.025 164.266 280.23 164.583 280.488 164.85C280.746 165.117 281.053 165.329 281.39 165.474C281.727 165.618 282.089 165.693 282.454 165.693C283.191 165.693 283.899 165.39 284.42 164.85C284.942 164.311 285.235 163.579 285.235 162.816C285.235 162.053 284.942 161.322 284.42 160.782C283.899 160.243 283.191 159.94 282.454 159.94Z" fill="white"/>
</g>
<g filter="url(#filter4_d_8_108)">
<path d="M277.82 154.186C280.033 154.186 282.154 155.096 283.719 156.714C285.283 158.332 286.162 160.527 286.162 162.816C286.162 165.764 284.608 168.176 282.972 169.907C282.154 170.763 281.262 171.538 280.306 172.224L279.911 172.502L279.726 172.629L279.376 172.86L279.065 173.056L278.679 173.288C278.418 173.443 278.122 173.524 277.82 173.524C277.519 173.524 277.223 173.443 276.961 173.288L276.575 173.056L276.093 172.749L275.915 172.629L275.535 172.368C274.505 171.646 273.545 170.822 272.669 169.907C271.032 168.175 269.479 165.764 269.479 162.816C269.479 160.527 270.357 158.332 271.922 156.714C273.486 155.096 275.608 154.186 277.82 154.186ZM277.82 159.94C277.455 159.94 277.093 160.014 276.756 160.159C276.419 160.303 276.112 160.515 275.854 160.782C275.596 161.049 275.391 161.366 275.251 161.715C275.112 162.064 275.04 162.438 275.04 162.816C275.04 163.194 275.112 163.568 275.251 163.917C275.391 164.266 275.596 164.583 275.854 164.85C276.112 165.117 276.419 165.329 276.756 165.474C277.093 165.618 277.455 165.693 277.82 165.693C278.558 165.693 279.265 165.39 279.786 164.85C280.308 164.311 280.601 163.579 280.601 162.816C280.601 162.053 280.308 161.322 279.786 160.782C279.265 160.243 278.558 159.94 277.82 159.94Z" fill="white"/>
</g>
<g filter="url(#filter5_d_8_108)">
<path d="M309.333 189.665C311.546 189.665 313.667 190.574 315.232 192.193C316.796 193.811 317.675 196.006 317.675 198.295C317.675 201.242 316.122 203.655 314.485 205.386C313.667 206.241 312.775 207.017 311.819 207.702L311.424 207.981L311.239 208.108L310.89 208.338L310.578 208.535L310.193 208.767C309.931 208.921 309.635 209.003 309.333 209.003C309.032 209.003 308.736 208.921 308.474 208.767L308.089 208.535L307.607 208.228L307.429 208.108L307.049 207.846C306.018 207.125 305.058 206.301 304.182 205.386C302.545 203.654 300.992 201.242 300.992 198.295C300.992 196.006 301.871 193.811 303.435 192.193C304.999 190.574 307.121 189.665 309.333 189.665ZM309.333 195.418C308.968 195.418 308.607 195.493 308.269 195.637C307.932 195.782 307.625 195.994 307.367 196.261C307.109 196.528 306.904 196.845 306.764 197.194C306.625 197.543 306.553 197.917 306.553 198.295C306.553 198.673 306.625 199.047 306.764 199.396C306.904 199.745 307.109 200.062 307.367 200.329C307.625 200.596 307.932 200.808 308.269 200.953C308.607 201.097 308.968 201.171 309.333 201.171C310.071 201.171 310.778 200.868 311.3 200.329C311.821 199.789 312.114 199.058 312.114 198.295C312.114 197.532 311.821 196.8 311.3 196.261C310.778 195.721 310.071 195.418 309.333 195.418Z" fill="white"/>
</g>
<g filter="url(#filter6_d_8_108)">
<path d="M270.406 158.981C272.618 158.981 274.74 159.89 276.304 161.508C277.868 163.127 278.747 165.322 278.747 167.611C278.747 170.558 277.194 172.971 275.557 174.702C274.739 175.557 273.847 176.332 272.891 177.018L272.497 177.296L272.311 177.424L271.962 177.654L271.65 177.851L271.265 178.083C271.003 178.237 270.707 178.318 270.406 178.318C270.104 178.318 269.808 178.237 269.546 178.083L269.161 177.851L268.679 177.544L268.501 177.424L268.121 177.162C267.09 176.441 266.13 175.616 265.254 174.702C263.617 172.97 262.064 170.558 262.064 167.611C262.064 165.322 262.943 163.127 264.507 161.508C266.072 159.89 268.193 158.981 270.406 158.981ZM270.406 164.734C270.04 164.734 269.679 164.808 269.342 164.953C269.004 165.098 268.698 165.309 268.439 165.577C268.181 165.844 267.976 166.161 267.837 166.51C267.697 166.859 267.625 167.233 267.625 167.611C267.625 167.988 267.697 168.362 267.837 168.711C267.976 169.061 268.181 169.378 268.439 169.645C268.698 169.912 269.004 170.124 269.342 170.268C269.679 170.413 270.04 170.487 270.406 170.487C271.143 170.487 271.85 170.184 272.372 169.645C272.893 169.105 273.186 168.374 273.186 167.611C273.186 166.848 272.893 166.116 272.372 165.577C271.85 165.037 271.143 164.734 270.406 164.734Z" fill="white"/>
</g>
<g filter="url(#filter7_d_8_108)">
<path d="M273.186 166.652C275.398 166.652 277.52 167.561 279.084 169.179C280.649 170.798 281.528 172.993 281.528 175.282C281.528 178.229 279.974 180.642 278.337 182.373C277.52 183.228 276.627 184.003 275.672 184.689L275.277 184.967L275.092 185.095L274.742 185.325L274.431 185.522L274.045 185.754C273.783 185.908 273.487 185.989 273.186 185.989C272.885 185.989 272.588 185.908 272.327 185.754L271.941 185.522L271.459 185.215L271.281 185.095L270.901 184.833C269.87 184.112 268.91 183.287 268.034 182.373C266.398 180.641 264.844 178.229 264.844 175.282C264.844 172.993 265.723 170.798 267.287 169.179C268.852 167.561 270.974 166.652 273.186 166.652ZM273.186 172.405C272.821 172.405 272.459 172.479 272.122 172.624C271.784 172.769 271.478 172.98 271.22 173.248C270.962 173.515 270.757 173.832 270.617 174.181C270.477 174.53 270.405 174.904 270.405 175.282C270.405 175.659 270.477 176.034 270.617 176.383C270.757 176.732 270.962 177.049 271.22 177.316C271.478 177.583 271.784 177.795 272.122 177.939C272.459 178.084 272.821 178.158 273.186 178.158C273.923 178.158 274.631 177.855 275.152 177.316C275.674 176.776 275.966 176.045 275.966 175.282C275.966 174.519 275.674 173.787 275.152 173.248C274.631 172.708 273.923 172.405 273.186 172.405Z" fill="white"/>
</g>
<g filter="url(#filter8_d_8_108)">
<path d="M277.82 161.857C280.033 161.857 282.154 162.766 283.719 164.385C285.283 166.003 286.162 168.198 286.162 170.487C286.162 173.435 284.608 175.847 282.972 177.578C282.154 178.433 281.262 179.209 280.306 179.895L279.911 180.173L279.726 180.3L279.376 180.53L279.065 180.727L278.679 180.959C278.418 181.114 278.122 181.195 277.82 181.195C277.519 181.195 277.223 181.114 276.961 180.959L276.575 180.727L276.093 180.42L275.915 180.3L275.535 180.039C274.505 179.317 273.545 178.493 272.669 177.578C271.032 175.846 269.479 173.435 269.479 170.487C269.479 168.198 270.357 166.003 271.922 164.385C273.486 162.766 275.608 161.857 277.82 161.857ZM277.82 167.61C277.455 167.61 277.093 167.685 276.756 167.829C276.419 167.974 276.112 168.186 275.854 168.453C275.596 168.72 275.391 169.037 275.251 169.386C275.112 169.735 275.04 170.109 275.04 170.487C275.04 170.865 275.112 171.239 275.251 171.588C275.391 171.937 275.596 172.254 275.854 172.521C276.112 172.788 276.419 173 276.756 173.145C277.093 173.289 277.455 173.364 277.82 173.364C278.558 173.364 279.265 173.061 279.786 172.521C280.308 171.982 280.601 171.25 280.601 170.487C280.601 169.724 280.308 168.992 279.786 168.453C279.265 167.914 278.558 167.61 277.82 167.61Z" fill="white"/>
</g>
<g filter="url(#filter9_d_8_108)">
<path d="M307.479 67.8866C309.692 67.8866 311.813 68.7958 313.378 70.4142C314.942 72.0327 315.821 74.2277 315.821 76.5165C315.821 79.4641 314.268 81.8767 312.631 83.6075C311.813 84.4628 310.921 85.2384 309.965 85.9241L309.57 86.2022L309.385 86.3297L309.036 86.5599L308.724 86.7564L308.339 86.9885C308.077 87.143 307.781 87.2243 307.479 87.2243C307.178 87.2243 306.882 87.143 306.62 86.9885L306.235 86.7564L305.753 86.4496L305.575 86.3297L305.195 86.068C304.164 85.3464 303.204 84.5223 302.328 83.6075C300.691 81.8757 299.138 79.4641 299.138 76.5165C299.138 74.2277 300.017 72.0327 301.581 70.4142C303.145 68.7958 305.267 67.8866 307.479 67.8866ZM307.479 73.6399C307.114 73.6399 306.753 73.7143 306.415 73.8589C306.078 74.0034 305.771 74.2153 305.513 74.4824C305.255 74.7496 305.05 75.0667 304.91 75.4157C304.771 75.7647 304.699 76.1388 304.699 76.5165C304.699 76.8943 304.771 77.2684 304.91 77.6174C305.05 77.9664 305.255 78.2835 305.513 78.5506C305.771 78.8177 306.078 79.0296 306.415 79.1742C306.753 79.3188 307.114 79.3932 307.479 79.3932C308.217 79.3932 308.924 79.0901 309.446 78.5506C309.967 78.0112 310.26 77.2795 310.26 76.5165C310.26 75.7536 309.967 75.0219 309.446 74.4824C308.924 73.943 308.217 73.6399 307.479 73.6399Z" fill="white"/>
</g>
<g filter="url(#filter10_d_8_108)">
<path d="M267.625 69.8044C269.837 69.8044 271.959 70.7137 273.523 72.3321C275.088 73.9505 275.967 76.1456 275.967 78.4344C275.967 81.382 274.413 83.7945 272.776 85.5253C271.959 86.3807 271.066 87.1562 270.111 87.842L269.716 88.12L269.53 88.2476L269.181 88.4777L268.87 88.6743L268.484 88.9063C268.222 89.0609 267.926 89.1422 267.625 89.1422C267.324 89.1422 267.027 89.0609 266.766 88.9063L266.38 88.6743L265.898 88.3674L265.72 88.2476L265.34 87.9858C264.309 87.2643 263.349 86.4402 262.473 85.5253C260.837 83.7936 259.283 81.382 259.283 78.4344C259.283 76.1456 260.162 73.9505 261.726 72.3321C263.291 70.7137 265.413 69.8044 267.625 69.8044ZM267.625 75.5577C267.26 75.5577 266.898 75.6321 266.561 75.7767C266.223 75.9213 265.917 76.1332 265.659 76.4003C265.401 76.6674 265.196 76.9845 265.056 77.3335C264.916 77.6825 264.844 78.0566 264.844 78.4344C264.844 78.8121 264.916 79.1862 265.056 79.5352C265.196 79.8842 265.401 80.2014 265.659 80.4685C265.917 80.7356 266.223 80.9475 266.561 81.0921C266.898 81.2366 267.26 81.311 267.625 81.311C268.362 81.311 269.07 81.0079 269.591 80.4685C270.112 79.929 270.405 79.1973 270.405 78.4344C270.405 77.6714 270.112 76.9398 269.591 76.4003C269.07 75.8608 268.362 75.5577 267.625 75.5577Z" fill="white"/>
</g>
<g filter="url(#filter11_d_8_108)">
<path d="M294.503 91.8588C296.716 91.8588 298.837 92.768 300.402 94.3864C301.966 96.0048 302.845 98.1999 302.845 100.489C302.845 103.436 301.292 105.849 299.655 107.58C298.837 108.435 297.945 109.211 296.989 109.896L296.594 110.174L296.409 110.302L296.059 110.532L295.748 110.729L295.362 110.961C295.101 111.115 294.805 111.196 294.503 111.196C294.202 111.196 293.906 111.115 293.644 110.961L293.259 110.729L292.777 110.422L292.599 110.302L292.219 110.04C291.188 109.319 290.228 108.494 289.352 107.58C287.715 105.848 286.162 103.436 286.162 100.489C286.162 98.1999 287.04 96.0048 288.605 94.3864C290.169 92.768 292.291 91.8588 294.503 91.8588ZM294.503 97.6121C294.138 97.6121 293.777 97.6865 293.439 97.831C293.102 97.9756 292.795 98.1875 292.537 98.4546C292.279 98.7217 292.074 99.0388 291.934 99.3879C291.795 99.7369 291.723 100.111 291.723 100.489C291.723 100.866 291.795 101.241 291.934 101.59C292.074 101.939 292.279 102.256 292.537 102.523C292.795 102.79 293.102 103.002 293.439 103.146C293.777 103.291 294.138 103.365 294.503 103.365C295.241 103.365 295.948 103.062 296.469 102.523C296.991 101.983 297.284 101.252 297.284 100.489C297.284 99.7258 296.991 98.9941 296.469 98.4546C295.948 97.9151 295.241 97.6121 294.503 97.6121Z" fill="white"/>
</g>
<g filter="url(#filter12_d_8_108)">
<path d="M315.822 142.68C318.034 142.68 320.156 143.589 321.72 145.207C323.284 146.826 324.163 149.021 324.163 151.31C324.163 154.257 322.61 156.67 320.973 158.4C320.155 159.256 319.263 160.031 318.307 160.717L317.913 160.995L317.727 161.123L317.378 161.353L317.066 161.549L316.681 161.781C316.419 161.936 316.123 162.017 315.822 162.017C315.52 162.017 315.224 161.936 314.962 161.781L314.577 161.549L314.095 161.243L313.917 161.123L313.537 160.861C312.506 160.139 311.546 159.315 310.67 158.4C309.033 156.669 307.48 154.257 307.48 151.31C307.48 149.021 308.359 146.826 309.923 145.207C311.488 143.589 313.609 142.68 315.822 142.68ZM315.822 148.433C315.456 148.433 315.095 148.507 314.758 148.652C314.42 148.796 314.114 149.008 313.855 149.275C313.597 149.543 313.392 149.86 313.253 150.209C313.113 150.558 313.041 150.932 313.041 151.31C313.041 151.687 313.113 152.061 313.253 152.41C313.392 152.759 313.597 153.076 313.855 153.344C314.114 153.611 314.42 153.823 314.758 153.967C315.095 154.112 315.456 154.186 315.822 154.186C316.559 154.186 317.266 153.883 317.788 153.344C318.309 152.804 318.602 152.072 318.602 151.31C318.602 150.547 318.309 149.815 317.788 149.275C317.266 148.736 316.559 148.433 315.822 148.433Z" fill="white"/>
</g>
<g filter="url(#filter13_d_8_108)">
<path d="M256.502 101.448C258.715 101.448 260.836 102.357 262.401 103.975C263.965 105.594 264.844 107.789 264.844 110.078C264.844 113.025 263.291 115.438 261.654 117.168C260.836 118.024 259.944 118.799 258.988 119.485L258.593 119.763L258.408 119.891L258.058 120.121L257.747 120.317L257.361 120.55C257.1 120.704 256.804 120.785 256.502 120.785C256.201 120.785 255.905 120.704 255.643 120.55L255.258 120.317L254.776 120.011L254.598 119.891L254.218 119.629C253.187 118.907 252.227 118.083 251.351 117.168C249.714 115.437 248.161 113.025 248.161 110.078C248.161 107.789 249.039 105.594 250.604 103.975C252.168 102.357 254.29 101.448 256.502 101.448ZM256.502 107.201C256.137 107.201 255.776 107.275 255.438 107.42C255.101 107.564 254.794 107.776 254.536 108.043C254.278 108.311 254.073 108.628 253.933 108.977C253.794 109.326 253.722 109.7 253.722 110.078C253.722 110.455 253.794 110.829 253.933 111.178C254.073 111.527 254.278 111.845 254.536 112.112C254.794 112.379 255.101 112.591 255.438 112.735C255.776 112.88 256.137 112.954 256.502 112.954C257.24 112.954 257.947 112.651 258.468 112.112C258.99 111.572 259.283 110.841 259.283 110.078C259.283 109.315 258.99 108.583 258.468 108.043C257.947 107.504 257.24 107.201 256.502 107.201Z" fill="white"/>
</g>
<g filter="url(#filter14_d_8_108)">
<path d="M208.306 103.366C210.518 103.366 212.64 104.275 214.204 105.893C215.769 107.512 216.648 109.707 216.648 111.996C216.648 114.943 215.094 117.356 213.457 119.086C212.64 119.942 211.747 120.717 210.792 121.403L210.397 121.681L210.212 121.809L209.862 122.039L209.551 122.235L209.165 122.467C208.903 122.622 208.607 122.703 208.306 122.703C208.005 122.703 207.709 122.622 207.447 122.467L207.061 122.235L206.579 121.929L206.401 121.809L206.021 121.547C204.991 120.825 204.03 120.001 203.155 119.086C201.518 117.355 199.964 114.943 199.964 111.996C199.964 109.707 200.843 107.512 202.408 105.893C203.972 104.275 206.094 103.366 208.306 103.366ZM208.306 109.119C207.941 109.119 207.579 109.193 207.242 109.338C206.905 109.482 206.598 109.694 206.34 109.961C206.082 110.229 205.877 110.546 205.737 110.895C205.597 111.244 205.525 111.618 205.525 111.996C205.525 112.373 205.597 112.747 205.737 113.096C205.877 113.445 206.082 113.763 206.34 114.03C206.598 114.297 206.905 114.509 207.242 114.653C207.579 114.798 207.941 114.872 208.306 114.872C209.043 114.872 209.751 114.569 210.272 114.03C210.794 113.49 211.087 112.758 211.087 111.996C211.087 111.233 210.794 110.501 210.272 109.961C209.751 109.422 209.043 109.119 208.306 109.119Z" fill="white"/>
</g>
<g filter="url(#filter15_d_8_108)">
<path d="M186.988 166.652C189.2 166.652 191.322 167.561 192.887 169.179C194.451 170.798 195.33 172.993 195.33 175.282C195.33 178.229 193.776 180.642 192.14 182.373C191.322 183.228 190.429 184.003 189.474 184.689L189.079 184.967L188.894 185.095L188.544 185.325L188.233 185.522L187.847 185.754C187.586 185.908 187.289 185.989 186.988 185.989C186.687 185.989 186.391 185.908 186.129 185.754L185.743 185.522L185.261 185.215L185.083 185.095L184.703 184.833C183.673 184.112 182.712 183.287 181.837 182.373C180.2 180.641 178.646 178.229 178.646 175.282C178.646 172.993 179.525 170.798 181.09 169.179C182.654 167.561 184.776 166.652 186.988 166.652ZM186.988 172.405C186.623 172.405 186.261 172.479 185.924 172.624C185.587 172.769 185.28 172.98 185.022 173.248C184.764 173.515 184.559 173.832 184.419 174.181C184.28 174.53 184.208 174.904 184.208 175.282C184.208 175.659 184.28 176.034 184.419 176.383C184.559 176.732 184.764 177.049 185.022 177.316C185.28 177.583 185.587 177.795 185.924 177.939C186.261 178.084 186.623 178.158 186.988 178.158C187.726 178.158 188.433 177.855 188.954 177.316C189.476 176.776 189.769 176.045 189.769 175.282C189.769 174.519 189.476 173.787 188.954 173.248C188.433 172.708 187.726 172.405 186.988 172.405Z" fill="white"/>
</g>
<g filter="url(#filter16_d_8_108)">
<path d="M199.965 236.649C202.177 236.649 204.299 237.559 205.863 239.177C207.428 240.795 208.306 242.99 208.306 245.279C208.306 248.227 206.753 250.639 205.116 252.37C204.298 253.226 203.406 254.001 202.451 254.687L202.056 254.965L201.87 255.092L201.521 255.323L201.209 255.519L200.824 255.751C200.562 255.906 200.266 255.987 199.965 255.987C199.663 255.987 199.367 255.906 199.106 255.751L198.72 255.519L198.238 255.212L198.06 255.092L197.68 254.831C196.649 254.109 195.689 253.285 194.813 252.37C193.176 250.638 191.623 248.227 191.623 245.279C191.623 242.99 192.502 240.795 194.066 239.177C195.631 237.559 197.752 236.649 199.965 236.649ZM199.965 242.403C199.6 242.403 199.238 242.477 198.901 242.622C198.563 242.766 198.257 242.978 197.999 243.245C197.74 243.512 197.536 243.829 197.396 244.178C197.256 244.527 197.184 244.901 197.184 245.279C197.184 245.657 197.256 246.031 197.396 246.38C197.536 246.729 197.74 247.046 197.999 247.313C198.257 247.58 198.563 247.792 198.901 247.937C199.238 248.081 199.6 248.156 199.965 248.156C200.702 248.156 201.409 247.853 201.931 247.313C202.452 246.774 202.745 246.042 202.745 245.279C202.745 244.516 202.452 243.785 201.931 243.245C201.409 242.706 200.702 242.403 199.965 242.403Z" fill="white"/>
</g>
<g filter="url(#filter17_d_8_108)">
<path d="M189.769 236.649C191.981 236.649 194.103 237.559 195.667 239.177C197.232 240.795 198.111 242.99 198.111 245.279C198.111 248.227 196.557 250.639 194.92 252.37C194.103 253.226 193.21 254.001 192.255 254.687L191.86 254.965L191.675 255.092L191.325 255.323L191.014 255.519L190.628 255.751C190.366 255.906 190.07 255.987 189.769 255.987C189.468 255.987 189.171 255.906 188.91 255.751L188.524 255.519L188.042 255.212L187.864 255.092L187.484 254.831C186.453 254.109 185.493 253.285 184.617 252.37C182.981 250.638 181.427 248.227 181.427 245.279C181.427 242.99 182.306 240.795 183.87 239.177C185.435 237.559 187.557 236.649 189.769 236.649ZM189.769 242.403C189.404 242.403 189.042 242.477 188.705 242.622C188.367 242.766 188.061 242.978 187.803 243.245C187.545 243.512 187.34 243.829 187.2 244.178C187.06 244.527 186.988 244.901 186.988 245.279C186.988 245.657 187.06 246.031 187.2 246.38C187.34 246.729 187.545 247.046 187.803 247.313C188.061 247.58 188.367 247.792 188.705 247.937C189.042 248.081 189.404 248.156 189.769 248.156C190.506 248.156 191.214 247.853 191.735 247.313C192.257 246.774 192.549 246.042 192.549 245.279C192.549 244.516 192.257 243.785 191.735 243.245C191.214 242.706 190.506 242.403 189.769 242.403Z" fill="white"/>
</g>
<g filter="url(#filter18_d_8_108)">
<path d="M186.988 224.185C189.2 224.185 191.322 225.094 192.887 226.712C194.451 228.331 195.33 230.526 195.33 232.815C195.33 235.762 193.776 238.175 192.14 239.905C191.322 240.761 190.429 241.536 189.474 242.222L189.079 242.5L188.894 242.628L188.544 242.858L188.233 243.054L187.847 243.286C187.586 243.441 187.289 243.522 186.988 243.522C186.687 243.522 186.391 243.441 186.129 243.286L185.743 243.054L185.261 242.748L185.083 242.628L184.703 242.366C183.673 241.644 182.712 240.82 181.837 239.905C180.2 238.174 178.646 235.762 178.646 232.815C178.646 230.526 179.525 228.331 181.09 226.712C182.654 225.094 184.776 224.185 186.988 224.185ZM186.988 229.938C186.623 229.938 186.261 230.012 185.924 230.157C185.587 230.301 185.28 230.513 185.022 230.78C184.764 231.048 184.559 231.365 184.419 231.714C184.28 232.063 184.208 232.437 184.208 232.815C184.208 233.192 184.28 233.566 184.419 233.915C184.559 234.264 184.764 234.581 185.022 234.849C185.28 235.116 185.587 235.328 185.924 235.472C186.261 235.617 186.623 235.691 186.988 235.691C187.726 235.691 188.433 235.388 188.954 234.849C189.476 234.309 189.769 233.577 189.769 232.815C189.769 232.052 189.476 231.32 188.954 230.78C188.433 230.241 187.726 229.938 186.988 229.938Z" fill="white"/>
</g>
<g filter="url(#filter19_d_8_108)">
<path d="M206.452 212.678C208.664 212.678 210.786 213.587 212.35 215.206C213.914 216.824 214.793 219.019 214.793 221.308C214.793 224.256 213.24 226.668 211.603 228.399C210.785 229.254 209.893 230.03 208.937 230.716L208.543 230.994L208.357 231.121L208.008 231.351L207.696 231.548L207.311 231.78C207.049 231.935 206.753 232.016 206.452 232.016C206.15 232.016 205.854 231.935 205.592 231.78L205.207 231.548L204.725 231.241L204.547 231.121L204.167 230.859C203.136 230.138 202.176 229.314 201.3 228.399C199.663 226.667 198.11 224.256 198.11 221.308C198.11 219.019 198.989 216.824 200.553 215.206C202.117 213.587 204.239 212.678 206.452 212.678ZM206.452 218.431C206.086 218.431 205.725 218.506 205.387 218.65C205.05 218.795 204.744 219.007 204.485 219.274C204.227 219.541 204.022 219.858 203.883 220.207C203.743 220.556 203.671 220.93 203.671 221.308C203.671 221.686 203.743 222.06 203.883 222.409C204.022 222.758 204.227 223.075 204.485 223.342C204.744 223.609 205.05 223.821 205.387 223.966C205.725 224.11 206.086 224.185 206.452 224.185C207.189 224.185 207.896 223.882 208.418 223.342C208.939 222.803 209.232 222.071 209.232 221.308C209.232 220.545 208.939 219.813 208.418 219.274C207.896 218.734 207.189 218.431 206.452 218.431Z" fill="white"/>
</g>
<g filter="url(#filter20_d_8_108)">
<path d="M151.768 170.488C153.98 170.488 156.102 171.397 157.666 173.015C159.231 174.634 160.11 176.829 160.11 179.117C160.11 182.065 158.556 184.478 156.919 186.208C156.102 187.064 155.209 187.839 154.254 188.525L153.859 188.803L153.674 188.931L153.324 189.161L153.013 189.357L152.627 189.589C152.365 189.744 152.069 189.825 151.768 189.825C151.467 189.825 151.17 189.744 150.909 189.589L150.523 189.357L150.041 189.051L149.863 188.931L149.483 188.669C148.452 187.947 147.492 187.123 146.616 186.208C144.98 184.477 143.426 182.065 143.426 179.117C143.426 176.829 144.305 174.634 145.869 173.015C147.434 171.397 149.556 170.488 151.768 170.488ZM151.768 176.241C151.403 176.241 151.041 176.315 150.704 176.46C150.367 176.604 150.06 176.816 149.802 177.083C149.544 177.351 149.339 177.668 149.199 178.017C149.059 178.366 148.987 178.74 148.987 179.117C148.987 179.495 149.059 179.869 149.199 180.218C149.339 180.567 149.544 180.884 149.802 181.152C150.06 181.419 150.367 181.631 150.704 181.775C151.041 181.92 151.403 181.994 151.768 181.994C152.505 181.994 153.213 181.691 153.734 181.152C154.256 180.612 154.548 179.88 154.548 179.117C154.548 178.355 154.256 177.623 153.734 177.083C153.213 176.544 152.505 176.241 151.768 176.241Z" fill="white"/>
</g>
<g filter="url(#filter21_d_8_108)">
<path d="M80.4012 227.061C82.6136 227.061 84.7353 227.97 86.2997 229.589C87.864 231.207 88.7429 233.402 88.7429 235.691C88.7429 238.639 87.1895 241.051 85.5527 242.782C84.7349 243.637 83.8426 244.413 82.887 245.099L82.4922 245.377L82.3068 245.504L81.9574 245.734L81.646 245.931L81.2604 246.163C80.9987 246.318 80.7026 246.399 80.4012 246.399C80.0999 246.399 79.8038 246.318 79.542 246.163L79.1565 245.931L78.6745 245.624L78.4966 245.504L78.1165 245.243C77.0857 244.521 76.1256 243.697 75.2498 242.782C73.613 241.05 72.0596 238.639 72.0596 235.691C72.0596 233.402 72.9384 231.207 74.5028 229.589C76.0672 227.97 78.1889 227.061 80.4012 227.061ZM80.4012 232.814C80.0361 232.814 79.6745 232.889 79.3372 233.033C78.9998 233.178 78.6933 233.39 78.4351 233.657C78.1769 233.924 77.9721 234.241 77.8323 234.59C77.6926 234.939 77.6207 235.313 77.6207 235.691C77.6207 236.069 77.6926 236.443 77.8323 236.792C77.9721 237.141 78.1769 237.458 78.4351 237.725C78.6933 237.992 78.9998 238.204 79.3372 238.349C79.6745 238.493 80.0361 238.568 80.4012 238.568C81.1387 238.568 81.8459 238.265 82.3674 237.725C82.8888 237.186 83.1818 236.454 83.1818 235.691C83.1818 234.928 82.8888 234.196 82.3674 233.657C81.8459 233.118 81.1387 232.814 80.4012 232.814Z" fill="white"/>
</g>
<g filter="url(#filter22_d_8_108)">
<path d="M63.7172 251.992C65.9295 251.992 68.0512 252.901 69.6156 254.52C71.18 256.138 72.0588 258.333 72.0588 260.622C72.0588 263.57 70.5054 265.982 68.8686 267.713C68.0508 268.568 67.1585 269.344 66.203 270.03L65.8081 270.308L65.6228 270.435L65.2733 270.665L64.9619 270.862L64.5763 271.094C64.3146 271.249 64.0185 271.33 63.7172 271.33C63.4158 271.33 63.1197 271.249 62.858 271.094L62.4724 270.862L61.9904 270.555L61.8125 270.435L61.4325 270.174C60.4016 269.452 59.4415 268.628 58.5657 267.713C56.9289 265.981 55.3755 263.57 55.3755 260.622C55.3755 258.333 56.2543 256.138 57.8187 254.52C59.3831 252.901 61.5048 251.992 63.7172 251.992ZM63.7172 257.745C63.352 257.745 62.9904 257.82 62.6531 257.964C62.3157 258.109 62.0092 258.321 61.751 258.588C61.4928 258.855 61.288 259.172 61.1483 259.521C61.0085 259.87 60.9366 260.244 60.9366 260.622C60.9366 261 61.0085 261.374 61.1483 261.723C61.288 262.072 61.4928 262.389 61.751 262.656C62.0092 262.923 62.3157 263.135 62.6531 263.28C62.9904 263.424 63.352 263.499 63.7172 263.499C64.4546 263.499 65.1618 263.196 65.6833 262.656C66.2048 262.117 66.4977 261.385 66.4977 260.622C66.4977 259.859 66.2048 259.128 65.6833 258.588C65.1618 258.049 64.4546 257.745 63.7172 257.745Z" fill="white"/>
</g>
<g filter="url(#filter23_d_8_108)">
<path d="M55.3758 203.089C57.5882 203.089 59.7099 203.998 61.2743 205.617C62.8387 207.235 63.7175 209.43 63.7175 211.719C63.7175 214.667 62.1641 217.079 60.5273 218.81C59.7095 219.665 58.8172 220.441 57.8617 221.127L57.4668 221.405L57.2814 221.532L56.932 221.762L56.6206 221.959L56.235 222.191C55.9733 222.345 55.6772 222.427 55.3758 222.427C55.0745 222.427 54.7784 222.345 54.5167 222.191L54.1311 221.959L53.6491 221.652L53.4712 221.532L53.0912 221.27C52.0603 220.549 51.1002 219.725 50.2244 218.81C48.5876 217.078 47.0342 214.667 47.0342 211.719C47.0342 209.43 47.913 207.235 49.4774 205.617C51.0418 203.998 53.1635 203.089 55.3758 203.089ZM55.3758 208.842C55.0107 208.842 54.6491 208.917 54.3118 209.061C53.9744 209.206 53.6679 209.418 53.4097 209.685C53.1515 209.952 52.9467 210.269 52.8069 210.618C52.6672 210.967 52.5953 211.341 52.5953 211.719C52.5953 212.097 52.6672 212.471 52.8069 212.82C52.9467 213.169 53.1515 213.486 53.4097 213.753C53.6679 214.02 53.9744 214.232 54.3118 214.377C54.6491 214.521 55.0107 214.596 55.3758 214.596C56.1133 214.596 56.8205 214.292 57.342 213.753C57.8634 213.214 58.1564 212.482 58.1564 211.719C58.1564 210.956 57.8634 210.224 57.342 209.685C56.8205 209.145 56.1133 208.842 55.3758 208.842Z" fill="white"/>
</g>
<g filter="url(#filter24_d_8_108)">
<path d="M72.0589 205.007C74.2713 205.007 76.393 205.916 77.9574 207.534C79.5218 209.153 80.4006 211.348 80.4006 213.637C80.4006 216.584 78.8472 218.997 77.2104 220.727C76.3926 221.583 75.5003 222.358 74.5448 223.044L74.1499 223.322L73.9646 223.45L73.6151 223.68L73.3037 223.876L72.9181 224.108C72.6564 224.263 72.3603 224.344 72.0589 224.344C71.7576 224.344 71.4615 224.263 71.1998 224.108L70.8142 223.876L70.3322 223.57L70.1543 223.45L69.7743 223.188C68.7434 222.466 67.7833 221.642 66.9075 220.727C65.2707 218.996 63.7173 216.584 63.7173 213.637C63.7173 211.348 64.5961 209.153 66.1605 207.534C67.7249 205.916 69.8466 205.007 72.0589 205.007ZM72.0589 210.76C71.6938 210.76 71.3322 210.834 70.9949 210.979C70.6575 211.123 70.351 211.335 70.0928 211.602C69.8346 211.87 69.6298 212.187 69.4901 212.536C69.3503 212.885 69.2784 213.259 69.2784 213.637C69.2784 214.014 69.3503 214.388 69.4901 214.737C69.6298 215.086 69.8346 215.404 70.0928 215.671C70.351 215.938 70.6575 216.15 70.9949 216.294C71.3322 216.439 71.6938 216.513 72.0589 216.513C72.7964 216.513 73.5036 216.21 74.0251 215.671C74.5466 215.131 74.8395 214.399 74.8395 213.637C74.8395 212.874 74.5466 212.142 74.0251 211.602C73.5036 211.063 72.7964 210.76 72.0589 210.76Z" fill="white"/>
</g>
<g filter="url(#filter25_d_8_108)">
<path d="M358.456 232.815C360.669 232.815 362.79 233.724 364.355 235.342C365.919 236.961 366.798 239.156 366.798 241.445C366.798 244.392 365.245 246.805 363.608 248.536C362.79 249.391 361.898 250.166 360.942 250.852L360.547 251.13L360.362 251.258L360.013 251.488L359.701 251.685L359.316 251.917C359.054 252.071 358.758 252.152 358.456 252.152C358.155 252.152 357.859 252.071 357.597 251.917L357.212 251.685L356.73 251.378L356.552 251.258L356.172 250.996C355.141 250.275 354.181 249.45 353.305 248.536C351.668 246.804 350.115 244.392 350.115 241.445C350.115 239.156 350.994 236.961 352.558 235.342C354.122 233.724 356.244 232.815 358.456 232.815ZM358.456 238.568C358.091 238.568 357.73 238.642 357.392 238.787C357.055 238.932 356.748 239.143 356.49 239.411C356.232 239.678 356.027 239.995 355.888 240.344C355.748 240.693 355.676 241.067 355.676 241.445C355.676 241.822 355.748 242.196 355.888 242.545C356.027 242.894 356.232 243.212 356.49 243.479C356.748 243.746 357.055 243.958 357.392 244.102C357.73 244.247 358.091 244.321 358.456 244.321C359.194 244.321 359.901 244.018 360.423 243.479C360.944 242.939 361.237 242.208 361.237 241.445C361.237 240.682 360.944 239.95 360.423 239.411C359.901 238.871 359.194 238.568 358.456 238.568Z" fill="white"/>
</g>
<g filter="url(#filter26_d_8_108)">
<path d="M414.994 61.1746C417.206 61.1746 419.328 62.0838 420.892 63.7022C422.457 65.3206 423.336 67.5157 423.336 69.8045C423.336 72.7521 421.782 75.1646 420.145 76.8954C419.328 77.7508 418.435 78.5263 417.48 79.2121L417.085 79.4902L416.9 79.6177L416.55 79.8478L416.239 80.0444L415.853 80.2764C415.591 80.431 415.295 80.5123 414.994 80.5123C414.693 80.5123 414.397 80.431 414.135 80.2764L413.749 80.0444L413.267 79.7376L413.089 79.6177L412.709 79.3559C411.679 78.6344 410.718 77.8103 409.843 76.8954C408.206 75.1637 406.652 72.7521 406.652 69.8045C406.652 67.5157 407.531 65.3206 409.096 63.7022C410.66 62.0838 412.782 61.1746 414.994 61.1746ZM414.994 66.9279C414.629 66.9279 414.267 67.0023 413.93 67.1468C413.593 67.2914 413.286 67.5033 413.028 67.7704C412.77 68.0375 412.565 68.3546 412.425 68.7037C412.285 69.0527 412.213 69.4267 412.213 69.8045C412.213 70.1823 412.285 70.5563 412.425 70.9053C412.565 71.2544 412.77 71.5715 413.028 71.8386C413.286 72.1057 413.593 72.3176 413.93 72.4622C414.267 72.6067 414.629 72.6811 414.994 72.6811C415.731 72.6811 416.439 72.3781 416.96 71.8386C417.482 71.2991 417.775 70.5674 417.775 69.8045C417.775 69.0416 417.482 68.3099 416.96 67.7704C416.439 67.2309 415.731 66.9279 414.994 66.9279Z" fill="white"/>
</g>
<g filter="url(#filter27_d_8_108)">
<path d="M20.1547 124.461C22.367 124.461 24.4887 125.37 26.0531 126.989C27.6175 128.607 28.4963 130.802 28.4963 133.091C28.4963 136.039 26.9429 138.451 25.3061 140.182C24.4883 141.037 23.596 141.813 22.6405 142.499L22.2456 142.777L22.0603 142.904L21.7108 143.134L21.3994 143.331L21.0138 143.563C20.7521 143.717 20.456 143.799 20.1547 143.799C19.8533 143.799 19.5572 143.717 19.2955 143.563L18.9099 143.331L18.4279 143.024L18.25 142.904L17.87 142.642C16.8391 141.921 15.879 141.097 15.0032 140.182C13.3664 138.45 11.813 136.039 11.813 133.091C11.813 130.802 12.6918 128.607 14.2562 126.989C15.8206 125.37 17.9423 124.461 20.1547 124.461ZM20.1547 130.214C19.7895 130.214 19.4279 130.289 19.0906 130.433C18.7532 130.578 18.4467 130.79 18.1885 131.057C17.9303 131.324 17.7255 131.641 17.5858 131.99C17.446 132.339 17.3741 132.713 17.3741 133.091C17.3741 133.469 17.446 133.843 17.5858 134.192C17.7255 134.541 17.9303 134.858 18.1885 135.125C18.4467 135.392 18.7532 135.604 19.0906 135.749C19.4279 135.893 19.7895 135.968 20.1547 135.968C20.8921 135.968 21.5993 135.665 22.1208 135.125C22.6423 134.586 22.9352 133.854 22.9352 133.091C22.9352 132.328 22.6423 131.596 22.1208 131.057C21.5993 130.517 20.8921 130.214 20.1547 130.214Z" fill="white"/>
</g>
<g filter="url(#filter28_d_8_108)">
<path d="M286.162 155.145C288.374 155.145 290.496 156.054 292.06 157.673C293.625 159.291 294.504 161.486 294.504 163.775C294.504 166.723 292.95 169.135 291.313 170.866C290.496 171.721 289.603 172.497 288.648 173.183L288.253 173.461L288.068 173.588L287.718 173.818L287.407 174.015L287.021 174.247C286.759 174.401 286.463 174.483 286.162 174.483C285.861 174.483 285.564 174.401 285.303 174.247L284.917 174.015L284.435 173.708L284.257 173.588L283.877 173.326C282.846 172.605 281.886 171.781 281.011 170.866C279.374 169.134 277.82 166.723 277.82 163.775C277.82 161.486 278.699 159.291 280.264 157.673C281.828 156.054 283.95 155.145 286.162 155.145ZM286.162 160.898C285.797 160.898 285.435 160.973 285.098 161.117C284.761 161.262 284.454 161.474 284.196 161.741C283.938 162.008 283.733 162.325 283.593 162.674C283.453 163.023 283.381 163.397 283.381 163.775C283.381 164.153 283.453 164.527 283.593 164.876C283.733 165.225 283.938 165.542 284.196 165.809C284.454 166.076 284.761 166.288 285.098 166.433C285.435 166.577 285.797 166.652 286.162 166.652C286.899 166.652 287.607 166.349 288.128 165.809C288.65 165.27 288.943 164.538 288.943 163.775C288.943 163.012 288.65 162.28 288.128 161.741C287.607 161.201 286.899 160.898 286.162 160.898Z" fill="white"/>
</g>
<g filter="url(#filter29_d_8_108)">
<path d="M278.747 178.158C280.96 178.158 283.082 179.067 284.646 180.686C286.21 182.304 287.089 184.499 287.089 186.788C287.089 189.736 285.536 192.148 283.899 193.879C283.081 194.734 282.189 195.51 281.233 196.196L280.838 196.474L280.653 196.601L280.304 196.831L279.992 197.028L279.607 197.26C279.345 197.415 279.049 197.496 278.747 197.496C278.446 197.496 278.15 197.415 277.888 197.26L277.503 197.028L277.021 196.721L276.843 196.601L276.463 196.34C275.432 195.618 274.472 194.794 273.596 193.879C271.959 192.147 270.406 189.736 270.406 186.788C270.406 184.499 271.285 182.304 272.849 180.686C274.413 179.067 276.535 178.158 278.747 178.158ZM278.747 183.911C278.382 183.911 278.021 183.986 277.683 184.13C277.346 184.275 277.039 184.487 276.781 184.754C276.523 185.021 276.318 185.338 276.179 185.687C276.039 186.036 275.967 186.41 275.967 186.788C275.967 187.166 276.039 187.54 276.179 187.889C276.318 188.238 276.523 188.555 276.781 188.822C277.039 189.089 277.346 189.301 277.683 189.446C278.021 189.59 278.382 189.665 278.747 189.665C279.485 189.665 280.192 189.362 280.714 188.822C281.235 188.283 281.528 187.551 281.528 186.788C281.528 186.025 281.235 185.294 280.714 184.754C280.192 184.215 279.485 183.911 278.747 183.911Z" fill="white"/>
</g>
<defs>
<filter id="filter0_d_8_108" x="0.821315" y="61.1746" width="21.9838" height="25.6438" filterUnits="userSpaceOnUse" color-interpolation-filters="sRGB">
<feFlood flood-opacity="0" result="BackgroundImageFix"/>
<feColorMatrix in="SourceAlpha" type="matrix" values="0 0 0 0 0 0 0 0 0 0 0 0 0 0 0 0 0 0 127 0" result="hardAlpha"/>
<feOffset dy="3.65568"/>
<feGaussianBlur stdDeviation="1.32518"/>
<feComposite in2="hardAlpha" operator="out"/>
<feColorMatrix type="matrix" values="0 0 0 0 0 0 0 0 0 0 0 0 0 0 0 0 0 0 0.44 0"/>
<feBlend mode="normal" in2="BackgroundImageFix" result="effect1_dropShadow_8_108"/>
<feBlend mode="normal" in="SourceGraphic" in2="effect1_dropShadow_8_108" result="shape"/>
</filter>
<filter id="filter1_d_8_108" x="94.4336" y="39.1207" width="21.9838" height="25.6438" filterUnits="userSpaceOnUse" color-interpolation-filters="sRGB">
<feFlood flood-opacity="0" result="BackgroundImageFix"/>
<feColorMatrix in="SourceAlpha" type="matrix" values="0 0 0 0 0 0 0 0 0 0 0 0 0 0 0 0 0 0 127 0" result="hardAlpha"/>
<feOffset dy="3.65568"/>
<feGaussianBlur stdDeviation="1.32518"/>
<feComposite in2="hardAlpha" operator="out"/>
<feColorMatrix type="matrix" values="0 0 0 0 0 0 0 0 0 0 0 0 0 0 0 0 0 0 0.44 0"/>
<feBlend mode="normal" in2="BackgroundImageFix" result="effect1_dropShadow_8_108"/>
<feBlend mode="normal" in="SourceGraphic" in2="effect1_dropShadow_8_108" result="shape"/>
</filter>
<filter id="filter2_d_8_108" x="86.0913" y="0.764893" width="21.9838" height="25.6438" filterUnits="userSpaceOnUse" color-interpolation-filters="sRGB">
<feFlood flood-opacity="0" result="BackgroundImageFix"/>
<feColorMatrix in="SourceAlpha" type="matrix" values="0 0 0 0 0 0 0 0 0 0 0 0 0 0 0 0 0 0 127 0" result="hardAlpha"/>
<feOffset dy="3.65568"/>
<feGaussianBlur stdDeviation="1.32518"/>
<feComposite in2="hardAlpha" operator="out"/>
<feColorMatrix type="matrix" values="0 0 0 0 0 0 0 0 0 0 0 0 0 0 0 0 0 0 0.44 0"/>
<feBlend mode="normal" in2="BackgroundImageFix" result="effect1_dropShadow_8_108"/>
<feBlend mode="normal" in="SourceGraphic" in2="effect1_dropShadow_8_108" result="shape"/>
</filter>
<filter id="filter3_d_8_108" x="271.462" y="154.186" width="21.9838" height="25.6438" filterUnits="userSpaceOnUse" color-interpolation-filters="sRGB">
<feFlood flood-opacity="0" result="BackgroundImageFix"/>
<feColorMatrix in="SourceAlpha" type="matrix" values="0 0 0 0 0 0 0 0 0 0 0 0 0 0 0 0 0 0 127 0" result="hardAlpha"/>
<feOffset dy="3.65568"/>
<feGaussianBlur stdDeviation="1.32518"/>
<feComposite in2="hardAlpha" operator="out"/>
<feColorMatrix type="matrix" values="0 0 0 0 0 0 0 0 0 0 0 0 0 0 0 0 0 0 0.44 0"/>
<feBlend mode="normal" in2="BackgroundImageFix" result="effect1_dropShadow_8_108"/>
<feBlend mode="normal" in="SourceGraphic" in2="effect1_dropShadow_8_108" result="shape"/>
</filter>
<filter id="filter4_d_8_108" x="266.828" y="154.186" width="21.9838" height="25.6438" filterUnits="userSpaceOnUse" color-interpolation-filters="sRGB">
<feFlood flood-opacity="0" result="BackgroundImageFix"/>
<feColorMatrix in="SourceAlpha" type="matrix" values="0 0 0 0 0 0 0 0 0 0 0 0 0 0 0 0 0 0 127 0" result="hardAlpha"/>
<feOffset dy="3.65568"/>
<feGaussianBlur stdDeviation="1.32518"/>
<feComposite in2="hardAlpha" operator="out"/>
<feColorMatrix type="matrix" values="0 0 0 0 0 0 0 0 0 0 0 0 0 0 0 0 0 0 0.44 0"/>
<feBlend mode="normal" in2="BackgroundImageFix" result="effect1_dropShadow_8_108"/>
<feBlend mode="normal" in="SourceGraphic" in2="effect1_dropShadow_8_108" result="shape"/>
</filter>
<filter id="filter5_d_8_108" x="298.341" y="189.665" width="21.9838" height="25.6438" filterUnits="userSpaceOnUse" color-interpolation-filters="sRGB">
<feFlood flood-opacity="0" result="BackgroundImageFix"/>
<feColorMatrix in="SourceAlpha" type="matrix" values="0 0 0 0 0 0 0 0 0 0 0 0 0 0 0 0 0 0 127 0" result="hardAlpha"/>
<feOffset dy="3.65568"/>
<feGaussianBlur stdDeviation="1.32518"/>
<feComposite in2="hardAlpha" operator="out"/>
<feColorMatrix type="matrix" values="0 0 0 0 0 0 0 0 0 0 0 0 0 0 0 0 0 0 0.44 0"/>
<feBlend mode="normal" in2="BackgroundImageFix" result="effect1_dropShadow_8_108"/>
<feBlend mode="normal" in="SourceGraphic" in2="effect1_dropShadow_8_108" result="shape"/>
</filter>
<filter id="filter6_d_8_108" x="259.414" y="158.981" width="21.9838" height="25.6438" filterUnits="userSpaceOnUse" color-interpolation-filters="sRGB">
<feFlood flood-opacity="0" result="BackgroundImageFix"/>
<feColorMatrix in="SourceAlpha" type="matrix" values="0 0 0 0 0 0 0 0 0 0 0 0 0 0 0 0 0 0 127 0" result="hardAlpha"/>
<feOffset dy="3.65568"/>
<feGaussianBlur stdDeviation="1.32518"/>
<feComposite in2="hardAlpha" operator="out"/>
<feColorMatrix type="matrix" values="0 0 0 0 0 0 0 0 0 0 0 0 0 0 0 0 0 0 0.44 0"/>
<feBlend mode="normal" in2="BackgroundImageFix" result="effect1_dropShadow_8_108"/>
<feBlend mode="normal" in="SourceGraphic" in2="effect1_dropShadow_8_108" result="shape"/>
</filter>
<filter id="filter7_d_8_108" x="262.194" y="166.652" width="21.9838" height="25.6438" filterUnits="userSpaceOnUse" color-interpolation-filters="sRGB">
<feFlood flood-opacity="0" result="BackgroundImageFix"/>
<feColorMatrix in="SourceAlpha" type="matrix" values="0 0 0 0 0 0 0 0 0 0 0 0 0 0 0 0 0 0 127 0" result="hardAlpha"/>
<feOffset dy="3.65568"/>
<feGaussianBlur stdDeviation="1.32518"/>
<feComposite in2="hardAlpha" operator="out"/>
<feColorMatrix type="matrix" values="0 0 0 0 0 0 0 0 0 0 0 0 0 0 0 0 0 0 0.44 0"/>
<feBlend mode="normal" in2="BackgroundImageFix" result="effect1_dropShadow_8_108"/>
<feBlend mode="normal" in="SourceGraphic" in2="effect1_dropShadow_8_108" result="shape"/>
</filter>
<filter id="filter8_d_8_108" x="266.828" y="161.857" width="21.9838" height="25.6438" filterUnits="userSpaceOnUse" color-interpolation-filters="sRGB">
<feFlood flood-opacity="0" result="BackgroundImageFix"/>
<feColorMatrix in="SourceAlpha" type="matrix" values="0 0 0 0 0 0 0 0 0 0 0 0 0 0 0 0 0 0 127 0" result="hardAlpha"/>
<feOffset dy="3.65568"/>
<feGaussianBlur stdDeviation="1.32518"/>
<feComposite in2="hardAlpha" operator="out"/>
<feColorMatrix type="matrix" values="0 0 0 0 0 0 0 0 0 0 0 0 0 0 0 0 0 0 0.44 0"/>
<feBlend mode="normal" in2="BackgroundImageFix" result="effect1_dropShadow_8_108"/>
<feBlend mode="normal" in="SourceGraphic" in2="effect1_dropShadow_8_108" result="shape"/>
</filter>
<filter id="filter9_d_8_108" x="296.487" y="67.8866" width="21.9838" height="25.6438" filterUnits="userSpaceOnUse" color-interpolation-filters="sRGB">
<feFlood flood-opacity="0" result="BackgroundImageFix"/>
<feColorMatrix in="SourceAlpha" type="matrix" values="0 0 0 0 0 0 0 0 0 0 0 0 0 0 0 0 0 0 127 0" result="hardAlpha"/>
<feOffset dy="3.65568"/>
<feGaussianBlur stdDeviation="1.32518"/>
<feComposite in2="hardAlpha" operator="out"/>
<feColorMatrix type="matrix" values="0 0 0 0 0 0 0 0 0 0 0 0 0 0 0 0 0 0 0.44 0"/>
<feBlend mode="normal" in2="BackgroundImageFix" result="effect1_dropShadow_8_108"/>
<feBlend mode="normal" in="SourceGraphic" in2="effect1_dropShadow_8_108" result="shape"/>
</filter>
<filter id="filter10_d_8_108" x="256.633" y="69.8044" width="21.9838" height="25.6438" filterUnits="userSpaceOnUse" color-interpolation-filters="sRGB">
<feFlood flood-opacity="0" result="BackgroundImageFix"/>
<feColorMatrix in="SourceAlpha" type="matrix" values="0 0 0 0 0 0 0 0 0 0 0 0 0 0 0 0 0 0 127 0" result="hardAlpha"/>
<feOffset dy="3.65568"/>
<feGaussianBlur stdDeviation="1.32518"/>
<feComposite in2="hardAlpha" operator="out"/>
<feColorMatrix type="matrix" values="0 0 0 0 0 0 0 0 0 0 0 0 0 0 0 0 0 0 0.44 0"/>
<feBlend mode="normal" in2="BackgroundImageFix" result="effect1_dropShadow_8_108"/>
<feBlend mode="normal" in="SourceGraphic" in2="effect1_dropShadow_8_108" result="shape"/>
</filter>
<filter id="filter11_d_8_108" x="283.511" y="91.8588" width="21.9838" height="25.6438" filterUnits="userSpaceOnUse" color-interpolation-filters="sRGB">
<feFlood flood-opacity="0" result="BackgroundImageFix"/>
<feColorMatrix in="SourceAlpha" type="matrix" values="0 0 0 0 0 0 0 0 0 0 0 0 0 0 0 0 0 0 127 0" result="hardAlpha"/>
<feOffset dy="3.65568"/>
<feGaussianBlur stdDeviation="1.32518"/>
<feComposite in2="hardAlpha" operator="out"/>
<feColorMatrix type="matrix" values="0 0 0 0 0 0 0 0 0 0 0 0 0 0 0 0 0 0 0.44 0"/>
<feBlend mode="normal" in2="BackgroundImageFix" result="effect1_dropShadow_8_108"/>
<feBlend mode="normal" in="SourceGraphic" in2="effect1_dropShadow_8_108" result="shape"/>
</filter>
<filter id="filter12_d_8_108" x="304.83" y="142.68" width="21.9838" height="25.6438" filterUnits="userSpaceOnUse" color-interpolation-filters="sRGB">
<feFlood flood-opacity="0" result="BackgroundImageFix"/>
<feColorMatrix in="SourceAlpha" type="matrix" values="0 0 0 0 0 0 0 0 0 0 0 0 0 0 0 0 0 0 127 0" result="hardAlpha"/>
<feOffset dy="3.65568"/>
<feGaussianBlur stdDeviation="1.32518"/>
<feComposite in2="hardAlpha" operator="out"/>
<feColorMatrix type="matrix" values="0 0 0 0 0 0 0 0 0 0 0 0 0 0 0 0 0 0 0.44 0"/>
<feBlend mode="normal" in2="BackgroundImageFix" result="effect1_dropShadow_8_108"/>
<feBlend mode="normal" in="SourceGraphic" in2="effect1_dropShadow_8_108" result="shape"/>
</filter>
<filter id="filter13_d_8_108" x="245.51" y="101.448" width="21.9838" height="25.6438" filterUnits="userSpaceOnUse" color-interpolation-filters="sRGB">
<feFlood flood-opacity="0" result="BackgroundImageFix"/>
<feColorMatrix in="SourceAlpha" type="matrix" values="0 0 0 0 0 0 0 0 0 0 0 0 0 0 0 0 0 0 127 0" result="hardAlpha"/>
<feOffset dy="3.65568"/>
<feGaussianBlur stdDeviation="1.32518"/>
<feComposite in2="hardAlpha" operator="out"/>
<feColorMatrix type="matrix" values="0 0 0 0 0 0 0 0 0 0 0 0 0 0 0 0 0 0 0.44 0"/>
<feBlend mode="normal" in2="BackgroundImageFix" result="effect1_dropShadow_8_108"/>
<feBlend mode="normal" in="SourceGraphic" in2="effect1_dropShadow_8_108" result="shape"/>
</filter>
<filter id="filter14_d_8_108" x="197.314" y="103.366" width="21.9838" height="25.6438" filterUnits="userSpaceOnUse" color-interpolation-filters="sRGB">
<feFlood flood-opacity="0" result="BackgroundImageFix"/>
<feColorMatrix in="SourceAlpha" type="matrix" values="0 0 0 0 0 0 0 0 0 0 0 0 0 0 0 0 0 0 127 0" result="hardAlpha"/>
<feOffset dy="3.65568"/>
<feGaussianBlur stdDeviation="1.32518"/>
<feComposite in2="hardAlpha" operator="out"/>
<feColorMatrix type="matrix" values="0 0 0 0 0 0 0 0 0 0 0 0 0 0 0 0 0 0 0.44 0"/>
<feBlend mode="normal" in2="BackgroundImageFix" result="effect1_dropShadow_8_108"/>
<feBlend mode="normal" in="SourceGraphic" in2="effect1_dropShadow_8_108" result="shape"/>
</filter>
<filter id="filter15_d_8_108" x="175.996" y="166.652" width="21.9838" height="25.6438" filterUnits="userSpaceOnUse" color-interpolation-filters="sRGB">
<feFlood flood-opacity="0" result="BackgroundImageFix"/>
<feColorMatrix in="SourceAlpha" type="matrix" values="0 0 0 0 0 0 0 0 0 0 0 0 0 0 0 0 0 0 127 0" result="hardAlpha"/>
<feOffset dy="3.65568"/>
<feGaussianBlur stdDeviation="1.32518"/>
<feComposite in2="hardAlpha" operator="out"/>
<feColorMatrix type="matrix" values="0 0 0 0 0 0 0 0 0 0 0 0 0 0 0 0 0 0 0.44 0"/>
<feBlend mode="normal" in2="BackgroundImageFix" result="effect1_dropShadow_8_108"/>
<feBlend mode="normal" in="SourceGraphic" in2="effect1_dropShadow_8_108" result="shape"/>
</filter>
<filter id="filter16_d_8_108" x="188.973" y="236.649" width="21.9838" height="25.6438" filterUnits="userSpaceOnUse" color-interpolation-filters="sRGB">
<feFlood flood-opacity="0" result="BackgroundImageFix"/>
<feColorMatrix in="SourceAlpha" type="matrix" values="0 0 0 0 0 0 0 0 0 0 0 0 0 0 0 0 0 0 127 0" result="hardAlpha"/>
<feOffset dy="3.65568"/>
<feGaussianBlur stdDeviation="1.32518"/>
<feComposite in2="hardAlpha" operator="out"/>
<feColorMatrix type="matrix" values="0 0 0 0 0 0 0 0 0 0 0 0 0 0 0 0 0 0 0.44 0"/>
<feBlend mode="normal" in2="BackgroundImageFix" result="effect1_dropShadow_8_108"/>
<feBlend mode="normal" in="SourceGraphic" in2="effect1_dropShadow_8_108" result="shape"/>
</filter>
<filter id="filter17_d_8_108" x="178.777" y="236.649" width="21.9838" height="25.6438" filterUnits="userSpaceOnUse" color-interpolation-filters="sRGB">
<feFlood flood-opacity="0" result="BackgroundImageFix"/>
<feColorMatrix in="SourceAlpha" type="matrix" values="0 0 0 0 0 0 0 0 0 0 0 0 0 0 0 0 0 0 127 0" result="hardAlpha"/>
<feOffset dy="3.65568"/>
<feGaussianBlur stdDeviation="1.32518"/>
<feComposite in2="hardAlpha" operator="out"/>
<feColorMatrix type="matrix" values="0 0 0 0 0 0 0 0 0 0 0 0 0 0 0 0 0 0 0.44 0"/>
<feBlend mode="normal" in2="BackgroundImageFix" result="effect1_dropShadow_8_108"/>
<feBlend mode="normal" in="SourceGraphic" in2="effect1_dropShadow_8_108" result="shape"/>
</filter>
<filter id="filter18_d_8_108" x="175.996" y="224.185" width="21.9838" height="25.6438" filterUnits="userSpaceOnUse" color-interpolation-filters="sRGB">
<feFlood flood-opacity="0" result="BackgroundImageFix"/>
<feColorMatrix in="SourceAlpha" type="matrix" values="0 0 0 0 0 0 0 0 0 0 0 0 0 0 0 0 0 0 127 0" result="hardAlpha"/>
<feOffset dy="3.65568"/>
<feGaussianBlur stdDeviation="1.32518"/>
<feComposite in2="hardAlpha" operator="out"/>
<feColorMatrix type="matrix" values="0 0 0 0 0 0 0 0 0 0 0 0 0 0 0 0 0 0 0.44 0"/>
<feBlend mode="normal" in2="BackgroundImageFix" result="effect1_dropShadow_8_108"/>
<feBlend mode="normal" in="SourceGraphic" in2="effect1_dropShadow_8_108" result="shape"/>
</filter>
<filter id="filter19_d_8_108" x="195.459" y="212.678" width="21.9838" height="25.6438" filterUnits="userSpaceOnUse" color-interpolation-filters="sRGB">
<feFlood flood-opacity="0" result="BackgroundImageFix"/>
<feColorMatrix in="SourceAlpha" type="matrix" values="0 0 0 0 0 0 0 0 0 0 0 0 0 0 0 0 0 0 127 0" result="hardAlpha"/>
<feOffset dy="3.65568"/>
<feGaussianBlur stdDeviation="1.32518"/>
<feComposite in2="hardAlpha" operator="out"/>
<feColorMatrix type="matrix" values="0 0 0 0 0 0 0 0 0 0 0 0 0 0 0 0 0 0 0.44 0"/>
<feBlend mode="normal" in2="BackgroundImageFix" result="effect1_dropShadow_8_108"/>
<feBlend mode="normal" in="SourceGraphic" in2="effect1_dropShadow_8_108" result="shape"/>
</filter>
<filter id="filter20_d_8_108" x="140.776" y="170.488" width="21.9838" height="25.6438" filterUnits="userSpaceOnUse" color-interpolation-filters="sRGB">
<feFlood flood-opacity="0" result="BackgroundImageFix"/>
<feColorMatrix in="SourceAlpha" type="matrix" values="0 0 0 0 0 0 0 0 0 0 0 0 0 0 0 0 0 0 127 0" result="hardAlpha"/>
<feOffset dy="3.65568"/>
<feGaussianBlur stdDeviation="1.32518"/>
<feComposite in2="hardAlpha" operator="out"/>
<feColorMatrix type="matrix" values="0 0 0 0 0 0 0 0 0 0 0 0 0 0 0 0 0 0 0.44 0"/>
<feBlend mode="normal" in2="BackgroundImageFix" result="effect1_dropShadow_8_108"/>
<feBlend mode="normal" in="SourceGraphic" in2="effect1_dropShadow_8_108" result="shape"/>
</filter>
<filter id="filter21_d_8_108" x="69.4092" y="227.061" width="21.9838" height="25.6438" filterUnits="userSpaceOnUse" color-interpolation-filters="sRGB">
<feFlood flood-opacity="0" result="BackgroundImageFix"/>
<feColorMatrix in="SourceAlpha" type="matrix" values="0 0 0 0 0 0 0 0 0 0 0 0 0 0 0 0 0 0 127 0" result="hardAlpha"/>
<feOffset dy="3.65568"/>
<feGaussianBlur stdDeviation="1.32518"/>
<feComposite in2="hardAlpha" operator="out"/>
<feColorMatrix type="matrix" values="0 0 0 0 0 0 0 0 0 0 0 0 0 0 0 0 0 0 0.44 0"/>
<feBlend mode="normal" in2="BackgroundImageFix" result="effect1_dropShadow_8_108"/>
<feBlend mode="normal" in="SourceGraphic" in2="effect1_dropShadow_8_108" result="shape"/>
</filter>
<filter id="filter22_d_8_108" x="52.7251" y="251.992" width="21.9838" height="25.6438" filterUnits="userSpaceOnUse" color-interpolation-filters="sRGB">
<feFlood flood-opacity="0" result="BackgroundImageFix"/>
<feColorMatrix in="SourceAlpha" type="matrix" values="0 0 0 0 0 0 0 0 0 0 0 0 0 0 0 0 0 0 127 0" result="hardAlpha"/>
<feOffset dy="3.65568"/>
<feGaussianBlur stdDeviation="1.32518"/>
<feComposite in2="hardAlpha" operator="out"/>
<feColorMatrix type="matrix" values="0 0 0 0 0 0 0 0 0 0 0 0 0 0 0 0 0 0 0.44 0"/>
<feBlend mode="normal" in2="BackgroundImageFix" result="effect1_dropShadow_8_108"/>
<feBlend mode="normal" in="SourceGraphic" in2="effect1_dropShadow_8_108" result="shape"/>
</filter>
<filter id="filter23_d_8_108" x="44.3838" y="203.089" width="21.9838" height="25.6438" filterUnits="userSpaceOnUse" color-interpolation-filters="sRGB">
<feFlood flood-opacity="0" result="BackgroundImageFix"/>
<feColorMatrix in="SourceAlpha" type="matrix" values="0 0 0 0 0 0 0 0 0 0 0 0 0 0 0 0 0 0 127 0" result="hardAlpha"/>
<feOffset dy="3.65568"/>
<feGaussianBlur stdDeviation="1.32518"/>
<feComposite in2="hardAlpha" operator="out"/>
<feColorMatrix type="matrix" values="0 0 0 0 0 0 0 0 0 0 0 0 0 0 0 0 0 0 0.44 0"/>
<feBlend mode="normal" in2="BackgroundImageFix" result="effect1_dropShadow_8_108"/>
<feBlend mode="normal" in="SourceGraphic" in2="effect1_dropShadow_8_108" result="shape"/>
</filter>
<filter id="filter24_d_8_108" x="61.0669" y="205.007" width="21.9838" height="25.6438" filterUnits="userSpaceOnUse" color-interpolation-filters="sRGB">
<feFlood flood-opacity="0" result="BackgroundImageFix"/>
<feColorMatrix in="SourceAlpha" type="matrix" values="0 0 0 0 0 0 0 0 0 0 0 0 0 0 0 0 0 0 127 0" result="hardAlpha"/>
<feOffset dy="3.65568"/>
<feGaussianBlur stdDeviation="1.32518"/>
<feComposite in2="hardAlpha" operator="out"/>
<feColorMatrix type="matrix" values="0 0 0 0 0 0 0 0 0 0 0 0 0 0 0 0 0 0 0.44 0"/>
<feBlend mode="normal" in2="BackgroundImageFix" result="effect1_dropShadow_8_108"/>
<feBlend mode="normal" in="SourceGraphic" in2="effect1_dropShadow_8_108" result="shape"/>
</filter>
<filter id="filter25_d_8_108" x="347.464" y="232.815" width="21.9838" height="25.6438" filterUnits="userSpaceOnUse" color-interpolation-filters="sRGB">
<feFlood flood-opacity="0" result="BackgroundImageFix"/>
<feColorMatrix in="SourceAlpha" type="matrix" values="0 0 0 0 0 0 0 0 0 0 0 0 0 0 0 0 0 0 127 0" result="hardAlpha"/>
<feOffset dy="3.65568"/>
<feGaussianBlur stdDeviation="1.32518"/>
<feComposite in2="hardAlpha" operator="out"/>
<feColorMatrix type="matrix" values="0 0 0 0 0 0 0 0 0 0 0 0 0 0 0 0 0 0 0.44 0"/>
<feBlend mode="normal" in2="BackgroundImageFix" result="effect1_dropShadow_8_108"/>
<feBlend mode="normal" in="SourceGraphic" in2="effect1_dropShadow_8_108" result="shape"/>
</filter>
<filter id="filter26_d_8_108" x="404.002" y="61.1746" width="21.9838" height="25.6438" filterUnits="userSpaceOnUse" color-interpolation-filters="sRGB">
<feFlood flood-opacity="0" result="BackgroundImageFix"/>
<feColorMatrix in="SourceAlpha" type="matrix" values="0 0 0 0 0 0 0 0 0 0 0 0 0 0 0 0 0 0 127 0" result="hardAlpha"/>
<feOffset dy="3.65568"/>
<feGaussianBlur stdDeviation="1.32518"/>
<feComposite in2="hardAlpha" operator="out"/>
<feColorMatrix type="matrix" values="0 0 0 0 0 0 0 0 0 0 0 0 0 0 0 0 0 0 0.44 0"/>
<feBlend mode="normal" in2="BackgroundImageFix" result="effect1_dropShadow_8_108"/>
<feBlend mode="normal" in="SourceGraphic" in2="effect1_dropShadow_8_108" result="shape"/>
</filter>
<filter id="filter27_d_8_108" x="9.16262" y="124.461" width="21.9838" height="25.6438" filterUnits="userSpaceOnUse" color-interpolation-filters="sRGB">
<feFlood flood-opacity="0" result="BackgroundImageFix"/>
<feColorMatrix in="SourceAlpha" type="matrix" values="0 0 0 0 0 0 0 0 0 0 0 0 0 0 0 0 0 0 127 0" result="hardAlpha"/>
<feOffset dy="3.65568"/>
<feGaussianBlur stdDeviation="1.32518"/>
<feComposite in2="hardAlpha" operator="out"/>
<feColorMatrix type="matrix" values="0 0 0 0 0 0 0 0 0 0 0 0 0 0 0 0 0 0 0.44 0"/>
<feBlend mode="normal" in2="BackgroundImageFix" result="effect1_dropShadow_8_108"/>
<feBlend mode="normal" in="SourceGraphic" in2="effect1_dropShadow_8_108" result="shape"/>
</filter>
<filter id="filter28_d_8_108" x="275.17" y="155.145" width="21.9838" height="25.6438" filterUnits="userSpaceOnUse" color-interpolation-filters="sRGB">
<feFlood flood-opacity="0" result="BackgroundImageFix"/>
<feColorMatrix in="SourceAlpha" type="matrix" values="0 0 0 0 0 0 0 0 0 0 0 0 0 0 0 0 0 0 127 0" result="hardAlpha"/>
<feOffset dy="3.65568"/>
<feGaussianBlur stdDeviation="1.32518"/>
<feComposite in2="hardAlpha" operator="out"/>
<feColorMatrix type="matrix" values="0 0 0 0 0 0 0 0 0 0 0 0 0 0 0 0 0 0 0.44 0"/>
<feBlend mode="normal" in2="BackgroundImageFix" result="effect1_dropShadow_8_108"/>
<feBlend mode="normal" in="SourceGraphic" in2="effect1_dropShadow_8_108" result="shape"/>
</filter>
<filter id="filter29_d_8_108" x="267.755" y="178.158" width="21.9838" height="25.6438" filterUnits="userSpaceOnUse" color-interpolation-filters="sRGB">
<feFlood flood-opacity="0" result="BackgroundImageFix"/>
<feColorMatrix in="SourceAlpha" type="matrix" values="0 0 0 0 0 0 0 0 0 0 0 0 0 0 0 0 0 0 127 0" result="hardAlpha"/>
<feOffset dy="3.65568"/>
<feGaussianBlur stdDeviation="1.32518"/>
<feComposite in2="hardAlpha" operator="out"/>
<feColorMatrix type="matrix" values="0 0 0 0 0 0 0 0 0 0 0 0 0 0 0 0 0 0 0.44 0"/>
<feBlend mode="normal" in2="BackgroundImageFix" result="effect1_dropShadow_8_108"/>
<feBlend mode="normal" in="SourceGraphic" in2="effect1_dropShadow_8_108" result="shape"/>
</filter>
</defs>
</svg>
