<svg width="8" height="8" viewBox="0 0 8 8" fill="none" xmlns="http://www.w3.org/2000/svg">
<g clip-path="url(#clip0_8_163)">
<path fill-rule="evenodd" clip-rule="evenodd" d="M4.26428 5.20969C4.18544 5.28843 4.07857 5.33266 3.96715 5.33266C3.85573 5.33266 3.74886 5.28843 3.67002 5.20969L2.08403 3.62426C2.00519 3.54539 1.96091 3.43842 1.96094 3.3269C1.96096 3.21537 2.00529 3.10843 2.08417 3.02959C2.16305 2.95075 2.27001 2.90647 2.38154 2.90649C2.49306 2.90652 2.60001 2.95085 2.67885 3.02973L3.96715 4.31803L5.25545 3.02973C5.33472 2.9531 5.44091 2.91067 5.55115 2.91157C5.6614 2.91248 5.76688 2.95665 5.84487 3.03457C5.92287 3.11249 5.96714 3.21793 5.96815 3.32817C5.96916 3.43842 5.92682 3.54465 5.85027 3.62398L4.26456 5.20998L4.26428 5.20969Z" fill="white"/>
</g>
<defs>
<clipPath id="clip0_8_163">
<rect width="6.72743" height="6.72743" fill="white" transform="translate(0.602539 0.708984)"/>
</clipPath>
</defs>
</svg>
