<svg width="11" height="12" viewBox="0 0 11 12" fill="none" xmlns="http://www.w3.org/2000/svg">
<g clip-path="url(#clip0_35_15)">
<path d="M6.51915 3.27608H3.92901M1.33887 5.47683V7.63226C1.33887 8.96878 1.33887 9.63746 1.65573 9.92929C1.80682 10.0687 1.99763 10.1564 2.20095 10.1797C2.62703 10.2284 3.12477 9.78812 4.11981 8.90791C4.56014 8.51895 4.77987 8.32426 5.03413 8.27332C5.15932 8.24742 5.28883 8.24742 5.41402 8.27332C5.66872 8.32426 5.88845 8.51895 6.32834 8.90791C7.32339 9.78812 7.82113 10.2284 8.2472 10.1792C8.4501 10.1564 8.64134 10.0687 8.79243 9.92929C9.10929 9.63746 9.10929 8.96921 9.10929 7.63226V5.4764C9.10929 3.62531 9.10929 2.69977 8.54032 2.12433C7.97135 1.54888 7.05531 1.54932 5.22408 1.54932C3.39285 1.54932 2.4768 1.54932 1.90783 2.12433C1.55946 2.47659 1.42434 2.96094 1.37211 3.70777L1.33887 5.47683Z" stroke="white" stroke-width="0.690704" stroke-linecap="round"/>
</g>
<defs>
<clipPath id="clip0_35_15">
<rect width="10.3606" height="10.3606" fill="white" transform="translate(0.0439453 0.685913)"/>
</clipPath>
</defs>
</svg>
