<svg width="11" height="12" viewBox="0 0 11 12" fill="none" xmlns="http://www.w3.org/2000/svg">
<g clip-path="url(#clip0_306_2242)">
<path d="M6.51817 3.27608H3.92803M1.33789 5.47683V7.63226C1.33789 8.96878 1.33789 9.63746 1.65475 9.92929C1.80584 10.0687 1.99665 10.1564 2.19998 10.1797C2.62605 10.2284 3.12379 9.78812 4.11884 8.90791C4.55916 8.51895 4.77889 8.32426 5.03316 8.27332C5.15835 8.24742 5.28785 8.24742 5.41304 8.27332C5.66774 8.32426 5.88747 8.51895 6.32736 8.90791C7.32241 9.78812 7.82015 10.2284 8.24623 10.1792C8.44912 10.1564 8.64036 10.0687 8.79145 9.92929C9.10831 9.63746 9.10831 8.96921 9.10831 7.63226V5.4764C9.10831 3.62531 9.10831 2.69977 8.53934 2.12433C7.97038 1.54888 7.05433 1.54932 5.2231 1.54932C3.39187 1.54932 2.47583 1.54932 1.90686 2.12433C1.55848 2.47659 1.42337 2.96094 1.37113 3.70777L1.33789 5.47683Z" stroke="white" stroke-width="0.690704" stroke-linecap="round"/>
</g>
<defs>
<clipPath id="clip0_306_2242">
<rect width="10.3606" height="10.3606" fill="white" transform="translate(0.0429688 0.685913)"/>
</clipPath>
</defs>
</svg>
